<?xml version="1.0" encoding="utf-8"?>
<!-- Generator: Adobe Illustrator 25.0.0, SVG Export Plug-In . SVG Version: 6.00 Build 0)  -->
<svg version="1.1" id="Layer_1" xmlns="http://www.w3.org/2000/svg" xmlns:xlink="http://www.w3.org/1999/xlink" x="0px" y="0px"
	 viewBox="0 0 512 512" enable-background="new 0 0 512 512" xml:space="preserve">
<g>
	<g>
		<path fill="#E8D6A4" d="M267.9,345.6V166.2c0-25.9,4.3-51.5,11-76.5c1.3-5,2.1-10.5,2.1-16.3c0-22.4-11.1-32-24.7-32
			c-13.7,0-24.7,9.6-24.7,32c0,5.8,0.7,11.3,2.1,16.3c6.7,25,11,50.6,11,76.5v179.4c0,25.9-4.3,51.5-11,76.5
			c-1.3,5-2.1,10.5-2.1,16.3c0,22.4,11.1,32,24.7,32c13.7,0,24.7-9.6,24.7-32c0-5.8-0.7-11.3-2.1-16.3
			C272.2,397.2,267.9,371.5,267.9,345.6z"/>
		
			<path opacity="0.5" fill="none" stroke="#FFFFFF" stroke-width="8.5822" stroke-linecap="round" stroke-linejoin="round" stroke-miterlimit="10" d="
			M256.3,56.4c9.7,0,9.7,12.8,9.7,16.9"/>
		
			<path fill="none" stroke="#000000" stroke-width="8.5822" stroke-linecap="round" stroke-linejoin="round" stroke-miterlimit="10" d="
			M267.9,193.6v-27.4c0-1.6,0-3.1,0-4.7"/>
		
			<path fill="none" stroke="#000000" stroke-width="8.5822" stroke-linecap="round" stroke-linejoin="round" stroke-miterlimit="10" d="
			M268,350.2c0-1.5,0-3.1,0-4.6v-27.9"/>
		
			<path fill="none" stroke="#000000" stroke-width="8.5822" stroke-linecap="round" stroke-linejoin="round" stroke-miterlimit="10" d="
			M235.5,415c-0.6,2.4-1.2,4.8-1.9,7.2c-1.3,5-2.1,10.5-2.1,16.3c0,22.4,11.1,32,24.7,32c13.7,0,24.7-9.6,24.7-32
			c0-5.8-0.7-11.3-2.1-16.3c-0.6-2.3-1.2-4.6-1.8-7"/>
		
			<path fill="none" stroke="#000000" stroke-width="8.5822" stroke-linecap="round" stroke-linejoin="round" stroke-miterlimit="10" d="
			M244.7,318.1v27.6c0,1.5,0,3.1,0,4.6"/>
		
			<path fill="none" stroke="#000000" stroke-width="8.5822" stroke-linecap="round" stroke-linejoin="round" stroke-miterlimit="10" d="
			M244.7,161.5c0,1.6,0,3.1,0,4.7V194"/>
		
			<path fill="none" stroke="#000000" stroke-width="8.5822" stroke-linecap="round" stroke-linejoin="round" stroke-miterlimit="10" d="
			M277.7,94.5c0.4-1.6,0.8-3.2,1.3-4.8c1.3-5,2.1-10.5,2.1-16.3c0-22.4-11.1-32-24.7-32c-13.7,0-24.7,9.6-24.7,32
			c0,5.8,0.7,11.3,2.1,16.3c0.5,1.8,1,3.7,1.4,5.5"/>
	</g>
	<g>
		<path fill="#E8D6A4" d="M327.9,311.2L201.1,184.3c-18.3-18.3-33.4-39.5-46.3-61.9c-2.6-4.5-6-8.9-10.1-13
			c-15.8-15.8-30.4-14.8-40.1-5.1c-9.7,9.7-10.7,24.3,5.1,40.1c4.1,4.1,8.6,7.5,13,10.1c22.5,12.9,43.6,28,61.9,46.3l126.9,126.9
			c18.3,18.3,33.4,39.5,46.3,61.9c2.6,4.5,6,8.9,10.1,13c15.8,15.8,30.4,14.8,40.1,5.1c9.7-9.7,10.7-24.3-5.1-40.1
			c-4.1-4.1-8.6-7.5-13-10.1C367.4,344.5,346.3,329.5,327.9,311.2z"/>
		
			<path fill="none" stroke="#000000" stroke-width="8.5822" stroke-linecap="round" stroke-linejoin="round" stroke-miterlimit="10" d="
			M220.5,203.7l-19.4-19.4c-1.1-1.1-2.2-2.2-3.3-3.4"/>
		
			<path fill="none" stroke="#000000" stroke-width="8.5822" stroke-linecap="round" stroke-linejoin="round" stroke-miterlimit="10" d="
			M331.2,314.4c-1.1-1.1-2.2-2.1-3.3-3.2l-19.7-19.7"/>
		
			<path fill="none" stroke="#000000" stroke-width="8.5822" stroke-linecap="round" stroke-linejoin="round" stroke-miterlimit="10" d="
			M354.1,383.1c1.3,2.1,2.5,4.3,3.8,6.4c2.6,4.5,6,8.9,10.1,13c15.8,15.8,30.4,14.8,40.1,5.1c9.7-9.7,10.7-24.3-5.1-40.1
			c-4.1-4.1-8.6-7.5-13-10.1c-2.1-1.2-4.1-2.4-6.2-3.6"/>
		
			<path fill="none" stroke="#000000" stroke-width="8.5822" stroke-linecap="round" stroke-linejoin="round" stroke-miterlimit="10" d="
			M292,308.1l19.5,19.5c1.1,1.1,2.1,2.2,3.2,3.3"/>
		
			<path fill="none" stroke="#000000" stroke-width="8.5822" stroke-linecap="round" stroke-linejoin="round" stroke-miterlimit="10" d="
			M181.3,197.4c1.1,1.1,2.2,2.2,3.4,3.3l19.6,19.6"/>
		
			<path fill="none" stroke="#000000" stroke-width="8.5822" stroke-linecap="round" stroke-linejoin="round" stroke-miterlimit="10" d="
			M157.3,126.7c-0.8-1.4-1.7-2.9-2.5-4.3c-2.6-4.5-6-8.9-10.1-13c-15.8-15.8-30.4-14.8-40.1-5.1c-9.7,9.7-10.7,24.3,5.1,40.1
			c4.1,4.1,8.6,7.5,13,10.1c1.6,0.9,3.3,1.9,4.9,2.9"/>
	</g>
	<g>
		<path fill="#E8D6A4" d="M346,244.3H166.6c-25.9,0-51.5-4.3-76.5-11c-5-1.3-10.5-2.1-16.3-2.1c-22.4,0-32,11.1-32,24.7
			c0,13.7,9.6,24.7,32,24.7c5.8,0,11.3-0.7,16.3-2.1c25-6.7,50.6-11,76.5-11H346c25.9,0,51.5,4.3,76.5,11c5,1.3,10.5,2.1,16.3,2.1
			c22.4,0,32-11.1,32-24.7c0-13.7-9.6-24.7-32-24.7c-5.8,0-11.3,0.7-16.3,2.1C397.5,240,371.9,244.3,346,244.3z"/>
		
			<path fill="none" stroke="#000000" stroke-width="8.5822" stroke-linecap="round" stroke-linejoin="round" stroke-miterlimit="10" d="
			M194,244.3h-27.4c-1.6,0-3.1,0-4.7,0"/>
		
			<path fill="none" stroke="#000000" stroke-width="8.5822" stroke-linecap="round" stroke-linejoin="round" stroke-miterlimit="10" d="
			M350.6,244.3c-1.5,0-3.1,0-4.6,0h-27.9"/>
		
			<path fill="none" stroke="#000000" stroke-width="8.5822" stroke-linecap="round" stroke-linejoin="round" stroke-miterlimit="10" d="
			M415.4,276.7c2.4,0.6,4.8,1.2,7.2,1.9c5,1.3,10.5,2.1,16.3,2.1c22.4,0,32-11.1,32-24.7c0-13.7-9.6-24.7-32-24.7
			c-5.8,0-11.3,0.7-16.3,2.1c-2.3,0.6-4.6,1.2-7,1.8"/>
		
			<path fill="none" stroke="#000000" stroke-width="8.5822" stroke-linecap="round" stroke-linejoin="round" stroke-miterlimit="10" d="
			M318.4,267.5H346c1.5,0,3.1,0,4.6,0"/>
		
			<path fill="none" stroke="#000000" stroke-width="8.5822" stroke-linecap="round" stroke-linejoin="round" stroke-miterlimit="10" d="
			M161.9,267.6c1.6,0,3.1,0,4.7,0h27.8"/>
		
			<path fill="none" stroke="#000000" stroke-width="8.5822" stroke-linecap="round" stroke-linejoin="round" stroke-miterlimit="10" d="
			M94.9,234.6c-1.6-0.4-3.2-0.8-4.8-1.3c-5-1.3-10.5-2.1-16.3-2.1c-22.4,0-32,11.1-32,24.7c0,13.7,9.6,24.7,32,24.7
			c5.8,0,11.3-0.7,16.3-2.1c1.8-0.5,3.7-1,5.5-1.4"/>
	</g>
	<g>
		<path fill="#E8D6A4" d="M311.5,184.3L184.7,311.2c-18.3,18.3-39.5,33.4-61.9,46.3c-4.5,2.6-8.9,6-13,10.1
			c-15.8,15.8-14.8,30.4-5.1,40.1c9.7,9.7,24.3,10.7,40.1-5.1c4.1-4.1,7.5-8.6,10.1-13c12.9-22.5,28-43.6,46.3-61.9l126.9-126.9
			c18.3-18.3,39.5-33.4,61.9-46.3c4.5-2.6,8.9-6,13-10.1c15.8-15.8,14.8-30.4,5.1-40.1c-9.7-9.7-24.3-10.7-40.1,5.1
			c-4.1,4.1-7.5,8.6-10.1,13C344.9,144.8,329.9,166,311.5,184.3z"/>
		
			<path opacity="0.5" fill="none" stroke="#FFFFFF" stroke-width="8.5822" stroke-linecap="round" stroke-linejoin="round" stroke-miterlimit="10" d="
			M385.7,114.2c2.3-1.3,4.4-2,6.2-2c0.7,0,2.8,0,5.5,2.7c1.1,1.1,3.4,3.4,2.3,7.9"/>
		
			<path fill="none" stroke="#000000" stroke-width="8.5822" stroke-linecap="round" stroke-linejoin="round" stroke-miterlimit="10" d="
			M204.1,291.8l-19.4,19.4c-1.1,1.1-2.2,2.2-3.4,3.3"/>
		
			<path fill="none" stroke="#000000" stroke-width="8.5822" stroke-linecap="round" stroke-linejoin="round" stroke-miterlimit="10" d="
			M314.7,181c-1.1,1.1-2.1,2.2-3.2,3.3L291.8,204"/>
		
			<path fill="none" stroke="#000000" stroke-width="8.5822" stroke-linecap="round" stroke-linejoin="round" stroke-miterlimit="10" d="
			M383.5,158.2c2.1-1.3,4.3-2.5,6.4-3.8c4.5-2.6,8.9-6,13-10.1c15.8-15.8,14.8-30.4,5.1-40.1c-9.7-9.7-24.3-10.7-40.1,5.1
			c-4.1,4.1-7.5,8.6-10.1,13c-1.2,2.1-2.4,4.1-3.6,6.2"/>
		
			<path fill="none" stroke="#000000" stroke-width="8.5822" stroke-linecap="round" stroke-linejoin="round" stroke-miterlimit="10" d="
			M308.4,220.2l19.5-19.5c1.1-1.1,2.2-2.1,3.3-3.2"/>
		
			<path fill="none" stroke="#000000" stroke-width="8.5822" stroke-linecap="round" stroke-linejoin="round" stroke-miterlimit="10" d="
			M197.8,330.9c1.1-1.1,2.2-2.2,3.3-3.4l19.6-19.6"/>
		
			<path fill="none" stroke="#000000" stroke-width="8.5822" stroke-linecap="round" stroke-linejoin="round" stroke-miterlimit="10" d="
			M127,355c-1.4,0.8-2.9,1.7-4.3,2.5c-4.5,2.6-8.9,6-13,10.1c-15.8,15.8-14.8,30.4-5.1,40.1c9.7,9.7,24.3,10.7,40.1-5.1
			c4.1-4.1,7.5-8.6,10.1-13c0.9-1.6,1.9-3.3,2.9-4.9"/>
	</g>
	
		<circle fill="#62514F" stroke="#000000" stroke-width="8.5822" stroke-linecap="round" stroke-linejoin="round" stroke-miterlimit="10" cx="256.3" cy="255.9" r="50"/>
	
		<path opacity="0.5" fill="none" stroke="#FFFFFF" stroke-width="8.5822" stroke-linecap="round" stroke-linejoin="round" stroke-miterlimit="10" d="
		M256.3,221c7.2,0,13.9,2.2,19.5,6"/>
	
		<path opacity="0.5" fill="none" stroke="#FFFFFF" stroke-width="8.5822" stroke-linecap="round" stroke-linejoin="round" stroke-miterlimit="10" d="
		M286.3,238.1c0.7,1.1,1.3,2.2,1.8,3.4c0.8,1.8,1.5,3.7,2,5.7"/>
	
		<path fill="#C0B2A3" stroke="#000000" stroke-width="8.5822" stroke-linecap="round" stroke-linejoin="round" stroke-miterlimit="10" d="
		M256.3,111c-80,0-144.9,64.9-144.9,144.9s64.9,144.9,144.9,144.9S401.2,336,401.2,255.9S336.3,111,256.3,111z M256.3,365.5
		c-60.5,0-109.6-49.1-109.6-109.6c0-60.5,49.1-109.6,109.6-109.6c60.5,0,109.6,49.1,109.6,109.6
		C365.9,316.5,316.8,365.5,256.3,365.5z"/>
	
		<path opacity="0.25" fill="none" stroke="#000000" stroke-width="12.8732" stroke-linecap="round" stroke-linejoin="round" stroke-miterlimit="10" d="
		M274.5,391.1c-6,0.8-12,1.2-18.2,1.2c-13.9,0-27.3-2.1-39.9-6 M194.4,377.4c-6-3.1-11.8-6.6-17.3-10.6"/>
	
		<path opacity="0.5" fill="none" stroke="#FFFFFF" stroke-width="8.5822" stroke-linecap="round" stroke-linejoin="round" stroke-miterlimit="10" d="
		M244.7,126.6c3.8-0.3,7.7-0.5,11.7-0.5c12.7,0,25,1.8,36.7,5.3 M308.4,137c5.5,2.4,10.7,5.2,15.7,8.3"/>
	
		<circle fill="#C0B2A3" stroke="#000000" stroke-width="8.5822" stroke-linecap="round" stroke-linejoin="round" stroke-miterlimit="10" cx="256.3" cy="255.9" r="21.8"/>
</g>
</svg>
